<?xml version="1.0" encoding="UTF-8" standalone="no"?>
<!-- Generator: Adobe Illustrator 16.0.0, SVG Export Plug-In . SVG Version: 6.00 Build 0)  -->

<svg
   version="1.1"
   id="Layer_1"
   x="0px"
   y="0px"
   width="280"
   height="280"
   viewBox="0 0 280 280"
   enable-background="new 0 0 900 300"
   xml:space="preserve"
   sodipodi:docname="PP_logo.svg"
   xmlns:inkscape="http://www.inkscape.org/namespaces/inkscape"
   xmlns:sodipodi="http://sodipodi.sourceforge.net/DTD/sodipodi-0.dtd"
   xmlns="http://www.w3.org/2000/svg"
   xmlns:svg="http://www.w3.org/2000/svg"><defs
   id="defs198" /><sodipodi:namedview
   id="namedview196"
   pagecolor="#505050"
   bordercolor="#eeeeee"
   borderopacity="1"
   inkscape:showpageshadow="0"
   inkscape:pageopacity="0"
   inkscape:pagecheckerboard="0"
   inkscape:deskcolor="#505050"
   showgrid="false"
   inkscape:zoom="0.78666667"
   inkscape:cx="450"
   inkscape:cy="150.63559"
   inkscape:window-width="1920"
   inkscape:window-height="1075"
   inkscape:window-x="0"
   inkscape:window-y="0"
   inkscape:window-maximized="1"
   inkscape:current-layer="Layer_1" />
<circle
   cx="140"
   cy="140"
   r="140"
   id="circle117" />
<g
   enable-background="new    "
   id="g121"
   transform="translate(-9.8500061,-10.328995)">
	<path
   fill="#ffffff"
   d="m 108.162,72.436 c 0,-2.041 0.711,-3.77 2.128,-5.187 1.417,-1.419 3.146,-2.128 5.188,-2.128 2.038,0 3.768,0.708 5.187,2.128 1.417,1.417 2.128,3.146 2.128,5.187 0,2.039 -0.711,3.768 -2.128,5.187 -1.419,1.417 -3.148,2.128 -5.187,2.128 -2.041,0 -3.771,-0.71 -5.188,-2.128 -1.417,-1.419 -2.128,-3.148 -2.128,-5.187 z m 25.936,-2.793 c 1.506,-1.775 3.169,-3.082 4.987,-3.923 1.816,-0.844 3.744,-1.264 5.785,-1.264 2.837,0 5.274,0.599 7.315,1.795 2.038,1.197 3.856,2.681 5.453,4.456 1.596,1.772 3.079,3.701 4.455,5.786 1.374,2.082 2.793,4.011 4.256,5.785 1.463,1.773 3.059,3.259 4.788,4.456 1.729,1.197 3.79,1.795 6.185,1.795 3.368,0 6.271,-1.286 8.711,-3.857 2.438,-2.573 3.658,-6.517 3.658,-11.837 0,-5.054 -0.998,-9.223 -2.993,-12.502 -1.994,-3.281 -4.634,-6.164 -7.913,-8.645 l 7.182,-6.65 c 4.167,3.192 7.469,7.203 9.909,12.037 2.438,4.832 3.657,10.44 3.657,16.824 0,4.078 -0.532,7.714 -1.596,10.906 -1.064,3.192 -2.527,5.918 -4.39,8.179 -1.861,2.261 -4.057,3.99 -6.583,5.187 -2.527,1.197 -5.21,1.796 -8.047,1.796 -3.37,0 -6.251,-0.645 -8.645,-1.929 -2.395,-1.287 -4.522,-2.882 -6.384,-4.788 -1.862,-1.908 -3.548,-3.969 -5.055,-6.185 -1.509,-2.217 -2.992,-4.279 -4.455,-6.185 -1.463,-1.908 -3.016,-3.503 -4.655,-4.788 -1.642,-1.287 -3.524,-1.929 -5.652,-1.929 -1.064,0 -2.194,0.31 -3.392,0.931 -1.197,0.619 -2.24,1.506 -3.125,2.66 z"
   id="path119" />
</g>
<g
   enable-background="new    "
   id="g125"
   transform="translate(-9.8500061,-10.328995)">
	<path
   fill="#ffffff"
   d="m 116.809,150.023 c 0,-2.041 0.711,-3.77 2.128,-5.187 1.417,-1.419 3.146,-2.128 5.188,-2.128 2.038,0 3.768,0.708 5.187,2.128 1.417,1.417 2.128,3.146 2.128,5.187 0,2.039 -0.711,3.768 -2.128,5.187 -1.419,1.417 -3.148,2.128 -5.187,2.128 -2.041,0 -3.771,-0.711 -5.188,-2.128 -1.417,-1.419 -2.128,-3.148 -2.128,-5.187 z m 51.87,0 c 0,-2.041 0.709,-3.77 2.128,-5.187 1.417,-1.419 3.146,-2.128 5.188,-2.128 2.038,0 3.768,0.708 5.187,2.128 1.417,1.417 2.128,3.146 2.128,5.187 0,2.039 -0.711,3.768 -2.128,5.187 -1.419,1.417 -3.148,2.128 -5.187,2.128 -2.041,0 -3.771,-0.711 -5.188,-2.128 -1.419,-1.419 -2.128,-3.148 -2.128,-5.187 z"
   id="path123" />
</g>
<g
   enable-background="new    "
   id="g129"
   transform="translate(-9.8500061,-10.328995)">
	<path
   fill="#ffffff"
   d="m 147.622,192.543 h 7.049 l 29.127,58.652 h -8.379 l -24.339,-50.141 -24.206,50.141 h -8.246 z"
   id="path127" />
</g>




</svg>
